<svg width="180" height="180" viewBox="0 0 180 180" fill="none" xmlns="http://www.w3.org/2000/svg">
<g filter="url(#filter0_d_76_285)">
<path d="M40 53.2241C40 46.495 40 43.1305 41.3096 40.5603C42.4615 38.2995 44.2995 36.4615 46.5603 35.3096C49.1305 34 52.495 34 59.2241 34H120.832C127.561 34 130.926 34 133.496 35.3096C135.757 36.4615 137.595 38.2995 138.747 40.5603C140.056 43.1305 140.056 46.495 140.056 53.2241V114.776C140.056 121.505 140.056 124.87 138.747 127.44C137.595 129.7 135.757 131.539 133.496 132.69C130.926 134 127.561 134 120.832 134H59.2241C52.495 134 49.1305 134 46.5603 132.69C44.2995 131.539 42.4615 129.7 41.3096 127.44C40 124.87 40 121.505 40 114.776V53.2241Z" fill="white"/>
</g>
<path d="M40.7509 59.7509H139.305V114.776C139.305 118.153 139.305 120.64 139.144 122.606C138.984 124.563 138.669 125.937 138.078 127.099C136.998 129.218 135.274 130.941 133.155 132.021C131.993 132.613 130.62 132.928 128.662 133.088C126.697 133.248 124.209 133.249 120.832 133.249H59.2241C55.8471 133.249 53.3596 133.248 51.3938 133.088C49.4367 132.928 48.0628 132.613 46.9012 132.021C44.7818 130.941 43.0586 129.218 41.9787 127.099C41.3868 125.937 41.072 124.563 40.9121 122.606C40.7515 120.64 40.7509 118.153 40.7509 114.776V59.7509Z" fill="white" stroke="#F1F5F9" stroke-width="1.50188"/>
<rect x="65.0139" y="59" width="25.0141" height="25" fill="#F3F4F6"/>
<rect x="90.0281" y="109" width="25.0141" height="25" fill="#F3F4F6"/>
<line x1="40" y1="83.7664" x2="140.056" y2="83.7664" stroke="#F3F4F6" stroke-width="2.25282"/>
<line x1="115.275" y1="59" x2="115.275" y2="134" stroke="#F3F4F6" stroke-width="2.25282"/>
<line x1="90.2612" y1="59" x2="90.2612" y2="134" stroke="#F3F4F6" stroke-width="2.25282"/>
<line x1="40" y1="108.766" x2="140.056" y2="108.766" stroke="#F3F4F6" stroke-width="2.25282"/>
<line x1="65.247" y1="59" x2="65.247" y2="134" stroke="#F3F4F6" stroke-width="2.25282"/>
<path d="M40 59H140.056V121.985C140.056 128.621 134.677 134 128.041 134H40V59Z" fill="url(#paint0_radial_76_285)" fill-opacity="0.8"/>
<path d="M40 53.2241C40 46.495 40 43.1305 41.3096 40.5603C42.4615 38.2995 44.2995 36.4615 46.5603 35.3096C49.1305 34 52.495 34 59.2241 34H120.832C127.561 34 130.926 34 133.496 35.3096C135.757 36.4615 137.595 38.2995 138.747 40.5603C140.056 43.1305 140.056 46.495 140.056 53.2241V59H40V53.2241Z" fill="url(#paint1_linear_76_285)"/>
<path d="M59.5244 34H70.0376V41.5094C70.0376 44.4125 67.6841 46.766 64.781 46.766V46.766C61.8779 46.766 59.5244 44.4125 59.5244 41.5094V34Z" fill="#E11D48"/>
<path d="M68.5358 33.2491H69.2867V32.4981V30.2453C69.2867 27.7569 67.2695 25.7397 64.7811 25.7397C62.2927 25.7397 60.2754 27.7569 60.2754 30.2453V32.4981V33.2491H61.0264H68.5358Z" fill="white" stroke="#F3F4F6" stroke-width="1.50188"/>
<rect x="61.0264" y="26.4906" width="7.50939" height="15.0188" rx="3.7547" fill="white"/>
<path d="M107.691 34H118.204V41.5094C118.204 44.4125 115.851 46.766 112.947 46.766V46.766C110.044 46.766 107.691 44.4125 107.691 41.5094V34Z" fill="#E11D48"/>
<path d="M116.702 33.2491H117.453V32.4981V30.2453C117.453 27.7569 115.436 25.7397 112.948 25.7397C110.459 25.7397 108.442 27.7569 108.442 30.2453V32.4981V33.2491H109.193H116.702Z" fill="white" stroke="#F3F4F6" stroke-width="1.50188"/>
<rect x="109.193" y="26.4906" width="7.50939" height="15.0188" rx="3.7547" fill="white"/>
<path opacity="0.5" d="M40 59.1557L42.274 59.1557L42.274 57.6538L40 57.6538L40 59.1557ZM46.822 59.1557L51.37 59.1557L51.37 57.6538L46.822 57.6538L46.822 59.1557ZM55.918 59.1557L60.466 59.1557L60.466 57.6538L55.918 57.6538L55.918 59.1557ZM65.0141 59.1557L69.5621 59.1557L69.5621 57.6538L65.0141 57.6538L65.0141 59.1557ZM74.1101 59.1557L78.6581 59.1557L78.6581 57.6538L74.1101 57.6538L74.1101 59.1557ZM83.2061 59.1557L87.7541 59.1557L87.7541 57.6538L83.2061 57.6538L83.2061 59.1557ZM92.3021 59.1557L96.8501 59.1557L96.8501 57.6538L92.3021 57.6538L92.3021 59.1557ZM101.398 59.1557L105.946 59.1557L105.946 57.6538L101.398 57.6538L101.398 59.1557ZM110.494 59.1557L115.042 59.1557L115.042 57.6538L110.494 57.6538L110.494 59.1557ZM119.59 59.1557L124.138 59.1557L124.138 57.6538L119.59 57.6538L119.59 59.1557ZM128.686 59.1557L133.234 59.1557L133.234 57.6538L128.686 57.6538L128.686 59.1557ZM137.782 59.1557L140.056 59.1557L140.056 57.6538L137.782 57.6538L137.782 59.1557Z" fill="#FFB8C6"/>
<path d="M112.66 100.369L124.274 111.976L146.905 89.3571" stroke="#10B981" stroke-width="11.2641"/>
<defs>
<filter id="filter0_d_76_285" x="0.951149" y="0.958664" width="178.154" height="178.098" filterUnits="userSpaceOnUse" color-interpolation-filters="sRGB">
<feFlood flood-opacity="0" result="BackgroundImageFix"/>
<feColorMatrix in="SourceAlpha" type="matrix" values="0 0 0 0 0 0 0 0 0 0 0 0 0 0 0 0 0 0 127 0" result="hardAlpha"/>
<feOffset dy="6.00752"/>
<feGaussianBlur stdDeviation="19.5244"/>
<feComposite in2="hardAlpha" operator="out"/>
<feColorMatrix type="matrix" values="0 0 0 0 0 0 0 0 0 0 0 0 0 0 0 0 0 0 0.05 0"/>
<feBlend mode="normal" in2="BackgroundImageFix" result="effect1_dropShadow_76_285"/>
<feBlend mode="normal" in="SourceGraphic" in2="effect1_dropShadow_76_285" result="shape"/>
</filter>
<radialGradient id="paint0_radial_76_285" cx="0" cy="0" r="1" gradientUnits="userSpaceOnUse" gradientTransform="translate(140.056 134) rotate(-180) scale(100.056 133.333)">
<stop offset="0.239583" stop-color="white"/>
<stop offset="1" stop-color="white" stop-opacity="0"/>
</radialGradient>
<linearGradient id="paint1_linear_76_285" x1="90.0281" y1="34" x2="90.0281" y2="59" gradientUnits="userSpaceOnUse">
<stop offset="0.630208" stop-color="#F43F5E"/>
<stop offset="1" stop-color="#EE2A55"/>
</linearGradient>
</defs>
</svg>
