<svg width="521" height="600" viewBox="0 0 521 600" fill="none" xmlns="http://www.w3.org/2000/svg">
<path d="M361.269 444.379C360.879 443.449 359.599 439.769 359.269 438.829C355.259 427.459 352.519 418.479 352.519 418.479L167.037 421.279C167.037 421.279 165.877 430.299 159.017 441.899C197.987 455.799 214.777 485.569 221.377 502.379C225.047 498.449 227.197 495.839 227.197 495.839C227.197 495.839 241.777 500.129 259.297 500.129C276.817 500.129 291.397 495.839 291.397 495.839C291.397 495.839 296.377 501.389 300.047 505.309C306.697 488.379 321.737 458.139 361.259 444.359L361.269 444.379Z" fill="#FF7700"/>
<path d="M159.017 441.909C156.697 445.829 149.727 454.049 145.927 458.309C136.217 455.239 125.437 455.869 114.967 464.779C83.7969 491.309 133.397 547.249 162.457 542.829C183.967 539.559 210.907 513.589 221.377 502.389C221.377 502.399 180.707 449.649 159.017 441.909Z" fill="white"/>
<path d="M356.149 542.829C385.199 547.249 434.809 491.299 403.639 464.779C392.649 455.429 381.319 455.189 371.249 458.789C369.009 455.189 362.369 446.499 360.359 441.639C320.837 455.419 307.757 488.399 301.107 505.329C311.577 516.519 334.639 539.559 356.149 542.829Z" fill="white"/>
<path d="M257.658 445.279C343.819 445.279 361.349 406.489 361.349 406.489C358.529 390.039 355.749 388.289 354.209 378.399C354.209 378.399 371.289 370.339 384.879 364.969L351.939 290.909H150.668L131.788 366.299C145.378 371.669 161.118 378.409 161.118 378.409C159.568 388.299 156.798 390.049 153.978 406.499C153.978 406.499 171.518 445.289 257.668 445.289" fill="#38BDF8"/>
<path d="M130.357 178.97C135.097 185.79 142.537 191.11 151.797 195.23V195.21C149.167 204.6 147.917 214.36 148.297 224.22C150.367 278.509 200.657 315.089 260.887 312.799C321.117 310.499 368.479 270.189 366.399 215.9C366.019 206.04 364.039 196.41 360.689 187.24L360.709 187.26C369.629 182.45 376.639 176.58 380.849 169.41C409.829 120.07 394.679 66.1599 394.679 66.1599C336.919 87.3399 305.677 127.21 305.637 127.26C301.897 125.44 298.037 123.82 294.077 122.41C294.077 122.41 300.808 103.2 288.598 100.35C276.378 97.4999 252.187 116.25 252.187 116.25C252.187 116.25 261.457 89.4799 246.357 88.8399C227.907 88.0599 206.427 118.41 200.957 126.63L198.277 127.35C187.807 117.38 156.367 90.5399 108.697 77.0799C108.697 77.0799 97.7068 131.98 130.357 178.97ZM305.497 127.82L305.637 127.26L306.337 128.03L305.497 127.82Z" fill="#FF7700"/>
<path d="M306.347 128.03L305.507 127.82L305.637 127.26L306.347 128.03Z" fill="white"/>
<path d="M305.507 127.82L305.647 127.26L306.347 128.03L305.507 127.82Z" fill="white"/>
<path d="M254.467 144.53C254.467 144.53 279.067 141.59 291.017 186.8C293.057 194.5 299.537 200.21 307.427 201.28C322.587 203.34 350.539 212.21 368.659 225.95C364.529 273.259 321.467 308.509 266.607 312.469L260.877 312.789C205.917 314.889 159.237 284.599 149.917 238.03C166.417 222.37 193.217 210.48 208.057 206.76C215.787 204.82 221.597 198.44 222.777 190.56C229.677 144.3 254.457 144.52 254.457 144.52" fill="white"/>
<path d="M278.127 244.18L257.867 237.97L238.137 245.71C238.137 245.71 235.307 270.819 259.087 269.909C282.867 268.999 278.127 244.18 278.127 244.18Z" fill="#A81B46"/>
<path d="M353.989 172.62C353.989 172.62 359.389 161.88 356.989 156.34C354.489 150.57 341.579 154.93 341.579 154.93C341.579 154.93 347.259 143.06 342.959 136.98C339.529 132.14 321.948 137.29 321.948 137.29C321.948 137.29 342.879 105.99 383.109 91.0399C383.109 91.0399 386.459 154.03 353.989 172.61V172.62Z" fill="white"/>
<path d="M157.387 180.12C157.387 180.12 151.177 169.82 153.157 164.12C155.217 158.18 168.407 161.54 168.407 161.54C168.407 161.54 161.837 150.13 165.667 143.75C168.717 138.66 186.637 142.46 186.637 142.46C186.637 142.46 163.387 112.85 122.127 101.01C122.127 101.01 123.587 164.07 157.387 180.12Z" fill="white"/>
<path d="M365.839 229.8C360.099 276.939 315.857 310.699 260.897 312.799C205.937 314.899 159.257 284.609 149.937 238.04C149.937 238.04 176.097 299.879 260.287 296.669C344.469 293.459 365.839 229.8 365.839 229.8Z" fill="#DCDFE2"/>
<path d="M242.557 101.7C230.277 99.3499 200.957 126.63 200.957 126.63C206.427 118.41 227.917 88.06 246.357 88.84C261.467 89.48 252.187 116.25 252.187 116.25C252.187 116.25 254.837 104.05 242.547 101.7H242.557Z" fill="#FFAA2A"/>
<path d="M252.198 116.25C252.198 116.25 276.388 97.4999 288.608 100.35C300.808 103.2 294.108 122.36 294.088 122.41C294.088 122.41 293.928 113.14 284.438 109.98C274.938 106.83 252.208 116.24 252.208 116.24" fill="#FFAA2A"/>
<path d="M259.087 269.909C267.617 269.579 272.467 266.169 275.197 261.939C272.147 255.789 265.707 251.659 258.407 251.939C251.107 252.219 244.997 256.819 242.427 263.189C245.467 267.199 250.557 270.229 259.097 269.909H259.087Z" fill="#FF4173"/>
<path d="M185.717 291.889C176.657 284.799 168.407 276.329 161.107 267.589C156.887 286.069 144.557 317.969 109.027 329.959C137.087 347.569 159.677 354.879 159.677 354.879L174.527 324.939L185.727 291.889H185.717Z" fill="#FF7700"/>
<path d="M161.107 267.579C156.157 261.639 151.637 255.579 147.607 249.739C131.117 225.8 96.3969 223.64 77.1369 245.41C76.8569 245.73 76.577 246.05 76.297 246.37C59.777 265.399 62.197 294.459 81.727 310.389C91.017 317.969 100.287 324.449 109.027 329.939C144.557 317.949 156.887 286.049 161.107 267.569V267.579Z" fill="white"/>
<path d="M327.619 291.889C336.679 284.799 344.929 276.329 352.229 267.589C356.449 286.069 368.779 317.969 404.309 329.959C376.249 347.569 353.659 354.879 353.659 354.879L338.809 324.939L327.609 291.889H327.619Z" fill="#FF7700"/>
<path d="M352.239 267.579C357.189 261.639 361.709 255.579 365.739 249.739C382.229 225.8 416.949 223.64 436.209 245.41C436.489 245.73 436.769 246.05 437.049 246.37C453.569 265.399 451.149 294.459 431.619 310.389C422.329 317.969 413.059 324.449 404.319 329.939C368.789 317.949 356.459 286.049 352.239 267.569V267.579Z" fill="white"/>
<path d="M295.478 341.509C295.478 341.509 291.518 352.109 283.458 351.589C275.398 351.069 268.028 340.679 253.908 344.989C239.788 349.299 236.898 360.069 237.658 366.659C237.658 366.659 241.308 358.529 249.118 357.379C255.938 356.369 263.488 367.969 280.778 363.479C297.128 359.239 295.468 341.499 295.468 341.499L295.478 341.509Z" fill="white"/>
<path d="M283.138 371.559C283.138 371.559 279.178 382.159 271.118 381.639C263.058 381.109 255.688 370.729 241.568 375.039C227.448 379.349 224.558 390.119 225.318 396.709C225.318 396.709 228.968 388.579 236.778 387.429C243.598 386.419 251.148 398.019 268.438 393.529C284.788 389.289 283.128 371.549 283.128 371.549L283.138 371.559Z" fill="white"/>
<path d="M397.029 332.939L354.419 353.359C354.419 353.359 362.289 373.979 384.879 364.979C403.479 357.569 397.039 332.939 397.039 332.939H397.029Z" fill="#0095FF"/>
<path d="M117.387 332.939L159.997 353.359C159.997 353.359 152.127 373.979 129.537 364.979C110.937 357.569 117.377 332.939 117.377 332.939H117.387Z" fill="#0095FF"/>
<path d="M353.159 382.159C352.919 382.159 352.679 382.139 352.439 382.079C338.869 379.229 330.989 368.269 330.659 367.799C329.539 366.219 329.919 364.039 331.499 362.919C333.079 361.809 335.259 362.179 336.369 363.749C336.489 363.919 343.099 372.959 353.869 375.219C355.759 375.619 356.969 377.469 356.579 379.359C356.229 381.009 354.779 382.139 353.159 382.139V382.159Z" fill="#0095FF"/>
<path d="M162.158 382.159C160.538 382.159 159.078 381.029 158.738 379.379C158.338 377.489 159.558 375.629 161.448 375.239C172.358 372.949 178.878 363.869 178.948 363.779C180.068 362.199 182.248 361.829 183.828 362.939C185.408 364.059 185.778 366.239 184.668 367.819C184.338 368.279 176.458 379.249 162.888 382.099C162.648 382.149 162.408 382.179 162.168 382.179L162.158 382.159Z" fill="#0095FF"/>
<path d="M161.454 538.689C169.602 532.859 168.14 516.849 158.188 502.939C148.236 489.029 133.563 482.479 125.415 488.309C117.267 494.139 118.729 510.139 128.681 524.049C138.633 537.959 153.306 544.509 161.454 538.689Z" fill="#DCDFE2"/>
<path d="M389.939 524.059C399.889 510.149 401.349 494.149 393.209 488.319C385.059 482.489 370.389 489.039 360.429 502.949C350.479 516.869 349.019 532.869 357.169 538.699C365.309 544.529 379.989 537.979 389.939 524.059Z" fill="#DCDFE2"/>
<path d="M383.249 519.659C387.769 513.109 388.099 505.509 383.989 502.669C379.879 499.839 372.879 502.849 368.369 509.389C363.849 515.939 363.519 523.539 367.629 526.379C371.739 529.209 378.729 526.209 383.249 519.659Z" fill="#FFA2BE"/>
<path d="M380.139 488.929C383.139 484.119 383.139 478.699 380.139 476.829C377.139 474.959 372.279 477.349 369.279 482.169C366.279 486.979 366.279 492.399 369.279 494.269C372.279 496.139 377.139 493.749 380.139 488.929Z" fill="#FFA2BE"/>
<path d="M150.939 526.569C155.049 523.729 154.719 516.129 150.203 509.579C145.687 503.039 138.695 500.029 134.585 502.859C130.475 505.699 130.805 513.299 135.321 519.849C139.837 526.399 146.829 529.409 150.939 526.569Z" fill="#FFA2BE"/>
<path d="M149.356 494.179C152.357 492.309 152.357 486.889 149.359 482.079C146.36 477.259 141.496 474.879 138.496 476.749C135.496 478.609 135.495 484.029 138.494 488.849C141.493 493.659 146.356 496.049 149.356 494.179Z" fill="#FFA2BE"/>
<path d="M129.368 494.609C132.191 492.779 132.102 487.629 129.169 483.099C126.235 478.569 121.569 476.379 118.746 478.209C115.923 480.039 116.012 485.189 118.945 489.719C121.879 494.249 126.545 496.439 129.368 494.609Z" fill="#FFA2BE"/>
<path d="M123.474 511.949C126.169 510.049 125.909 505.039 122.893 500.759C119.877 496.479 115.248 494.549 112.553 496.449C109.857 498.349 110.117 503.359 113.133 507.639C116.149 511.919 120.778 513.849 123.474 511.949Z" fill="#FFA2BE"/>
<path d="M158.007 594.669C158.007 587.059 201.437 571.539 255.007 571.539C308.577 571.539 352.009 587.059 352.009 594.669C352.009 602.279 308.577 599.099 255.007 599.099C201.437 599.099 158.007 602.279 158.007 594.669Z" fill="#DADDE0"/>
<path d="M271.717 60.64C281.448 60.64 289.337 47.065 289.337 30.32C289.337 13.575 281.448 0 271.717 0C261.986 0 254.097 13.575 254.097 30.32C254.097 47.065 261.986 60.64 271.717 60.64Z" fill="#FFAA2A"/>
<path d="M224.029 60.5529C230.235 57.5549 231.084 46.4689 225.925 35.7919C220.766 25.1159 211.553 18.8918 205.347 21.8898C199.141 24.8888 198.292 35.9749 203.451 46.6519C208.61 57.3279 217.823 63.5519 224.029 60.5529Z" fill="#FFAA2A"/>
<path d="M340.569 62.3769C348.629 53.6749 351.059 42.826 345.999 38.143C340.939 33.461 330.309 36.7199 322.254 45.4209C314.199 54.1229 311.77 64.973 316.828 69.655C321.886 74.337 332.519 71.0789 340.569 62.3769Z" fill="#FFAA2A"/>
<path d="M57.1858 215.107C60.7378 206.047 50.9798 193.747 35.3898 187.635C19.7998 181.522 4.28278 183.911 0.729779 192.971C-2.82222 202.03 6.9358 214.33 22.5258 220.443C38.1158 226.556 53.6328 224.166 57.1858 215.107Z" fill="#FFAA2A"/>
<path d="M25.8108 270.849C37.6548 270.269 46.9857 264.229 46.6527 257.339C46.3187 250.459 36.4478 245.34 24.6048 245.913C12.7608 246.486 3.42979 252.529 3.76279 259.419C4.09579 266.299 13.9668 271.419 25.8108 270.849Z" fill="#FFAA2A"/>
<path d="M84.6559 184.258C91.1759 182.021 93.3409 171.115 89.4919 159.9C85.6429 148.684 77.2379 141.406 70.7189 143.643C64.1999 145.88 62.0339 156.786 65.8829 168.001C69.7319 179.217 78.1369 186.495 84.6559 184.258Z" fill="#FFAA2A"/>
<path d="M498.579 245.707C513.909 238.952 523.139 226.258 519.219 217.353C515.289 208.449 499.689 206.706 484.369 213.461C469.049 220.216 459.809 232.91 463.729 241.815C467.659 250.719 483.259 252.459 498.579 245.707Z" fill="#FFAA2A"/>
<path d="M464.099 194.102C472.259 185.505 474.829 174.688 469.839 169.941C464.839 165.194 454.169 168.314 445.999 176.911C437.829 185.508 435.269 196.326 440.259 201.073C445.259 205.82 455.929 202.699 464.099 194.102Z" fill="#FFAA2A"/>
<path d="M515.289 296.389C516.969 289.709 509.009 281.939 497.519 279.049C486.019 276.149 475.329 279.219 473.649 285.909C471.969 292.589 479.919 300.359 491.419 303.249C502.919 306.149 513.609 303.079 515.289 296.389Z" fill="#FFAA2A"/>
<path d="M383.809 92.9299C360.349 102.32 339.439 118.6 324.859 139.24L320.968 133.94C327.539 132.32 341.049 128.57 345.849 135.01C350.099 141.64 347.539 149.85 344.739 156.45L340.459 151.62C361.169 145.18 365.389 157.02 357.109 174.2C354.979 178.29 348.899 175.34 350.819 171.13C352.529 167.25 354.879 162 353.789 157.8C353.579 157.4 353.429 157.37 352.889 157.16C349.809 156.35 345.839 157.33 342.699 158.25C340.839 158.85 338.849 157.83 338.259 155.96C337.689 154.24 338.739 152.96 339.269 151.37C340.449 148.13 341.499 144.25 340.879 140.92C340.689 139.85 339.989 138.74 340.039 138.99C337.759 138.04 334.849 138.45 332.299 138.71C329.199 139.11 325.939 139.82 322.928 140.66C321.008 141.26 318.928 140.13 318.478 138.15C318.248 137.15 318.478 136.14 319.028 135.36C321.078 132.51 323.158 130.08 325.439 127.51C332.099 120.13 339.529 113.46 347.549 107.62C358.199 99.8399 369.959 93.5599 382.399 89.1799C384.859 88.3799 386.229 91.9199 383.799 92.9399L383.809 92.9299Z" fill="#511500"/>
<path d="M360.709 190.75C359.459 190.75 358.259 190.08 357.629 188.91C356.709 187.21 357.349 185.09 359.049 184.17C367.859 179.42 374.169 173.86 377.829 167.63C401.389 127.52 394.839 83.7098 392.179 70.8398C338.419 91.7298 308.697 129.03 308.397 129.41C307.207 130.93 305.007 131.2 303.487 130C301.967 128.8 301.697 126.61 302.887 125.09C304.187 123.43 335.419 84.1499 393.479 62.8599C394.399 62.5299 395.409 62.5898 396.279 63.0298C397.149 63.4698 397.789 64.2598 398.059 65.1998C398.699 67.4598 413.269 121.11 383.869 171.17C379.559 178.51 372.329 184.96 362.379 190.33C361.849 190.62 361.279 190.75 360.719 190.75H360.709Z" fill="#511500"/>
<path d="M260.897 316.299C259.027 316.299 257.477 314.819 257.397 312.929C257.327 310.999 258.827 309.369 260.757 309.299C289.487 308.199 315.737 298.239 334.679 281.239C353.839 264.049 363.859 240.89 362.919 216.03C362.559 206.73 360.719 197.45 357.429 188.46C356.769 186.64 357.699 184.63 359.519 183.97C361.329 183.3 363.349 184.24 364.009 186.06C367.549 195.75 369.539 205.74 369.919 215.77C370.949 242.74 360.099 267.849 339.369 286.449C319.217 304.539 291.397 315.139 261.047 316.299C260.997 316.299 260.957 316.299 260.907 316.299H260.897Z" fill="#511500"/>
<path d="M122.687 99.0798C148.217 106.04 171.787 120.5 189.397 140.3C191.457 142.66 189.277 146.46 186.237 145.93C183.057 145.33 179.657 144.81 176.427 144.65C173.867 144.59 170.927 144.4 168.737 145.52C166.567 149.24 169.487 156.06 171.447 159.79C172.397 161.48 171.797 163.63 170.107 164.58C169.297 165.03 168.387 165.13 167.557 164.93C165.237 164.39 162.517 164.02 160.227 164.11C158.787 164.2 157.527 164.32 156.647 165.01C156.147 165.73 156.257 166.69 156.367 167.96C156.907 171.53 158.647 175.26 160.437 178.39C162.657 182.43 156.867 185.86 154.397 181.93C153.567 180.52 152.927 179.25 152.277 177.86C144.517 161.31 152.327 154.16 169.277 158.14L165.377 163.28C164.857 162.36 164.487 161.6 164.087 160.74C159.897 152 158.067 138.56 171.197 137.73C176.737 137.27 181.977 138 187.367 139.02L183.887 144.61C175.987 134.84 166.247 126.49 155.857 119.43C150.587 115.88 145.057 112.71 139.337 109.93C133.597 107.17 127.657 104.83 121.567 102.93C119.137 102.14 120.127 98.4399 122.687 99.0699V99.0798Z" fill="#511500"/>
<path d="M199.627 132.16C198.997 132.16 198.357 131.99 197.777 131.63C196.137 130.61 195.637 128.45 196.657 126.81C197.727 125.1 222.797 85.3199 245.677 85.3199C245.957 85.3199 246.227 85.3199 246.507 85.3399C250.557 85.5099 253.797 87.2099 255.867 90.2599C259.067 94.9699 258.827 102.14 257.857 107.96C266.507 102.31 280.227 94.8099 289.387 96.9499C292.987 97.7899 295.777 99.8699 297.477 102.95C301.707 110.66 297.827 122.28 297.377 123.58C296.737 125.4 294.737 126.36 292.917 125.72C291.097 125.08 290.137 123.08 290.777 121.26C291.727 118.54 293.677 110.54 291.347 106.31C290.607 104.97 289.477 104.16 287.807 103.77C280.087 101.96 263.177 112.17 254.337 119.02C253.117 119.97 251.407 120 250.147 119.1C248.887 118.2 248.377 116.57 248.877 115.11C250.887 109.29 252.977 98.4699 250.067 94.1999C249.517 93.3899 248.577 92.4399 246.197 92.3399C230.357 91.6699 209.357 119.67 202.587 130.52C201.927 131.58 200.777 132.17 199.617 132.17L199.627 132.16Z" fill="#511500"/>
<path d="M305.637 130.76C305.127 130.76 304.597 130.65 304.107 130.41C300.467 128.64 296.697 127.06 292.907 125.72C291.087 125.07 290.127 123.07 290.777 121.25C291.417 119.43 293.427 118.47 295.247 119.12C299.287 120.55 303.297 122.23 307.167 124.12C308.907 124.97 309.627 127.06 308.787 128.8C308.177 130.05 306.937 130.77 305.637 130.77V130.76Z" fill="#511500"/>
<path d="M151.798 198.73C151.318 198.73 150.838 198.63 150.378 198.43C140.048 193.84 132.348 187.96 127.488 180.97C94.3578 133.3 104.808 78.6999 105.268 76.3899C105.458 75.4299 106.038 74.5999 106.878 74.0899C107.708 73.5799 108.718 73.4399 109.658 73.7099C160.418 88.0399 193.248 117.48 202.098 126.16C203.478 127.51 203.498 129.73 202.148 131.11C200.798 132.49 198.578 132.51 197.198 131.16C188.868 122.99 158.558 95.7899 111.568 81.5599C109.888 94.5899 106.708 138.77 133.248 176.97C137.368 182.9 144.088 187.96 153.238 192.03C155.008 192.82 155.798 194.88 155.018 196.65C154.438 197.95 153.158 198.73 151.818 198.73H151.798Z" fill="#511500"/>
<path d="M274.912 215.378C275.109 207.439 267.225 200.803 257.304 200.557C247.382 200.311 239.18 206.548 238.983 214.488C238.786 222.427 246.669 229.062 256.591 229.308C266.512 229.554 274.715 223.318 274.912 215.378Z" fill="#511500"/>
<path d="M254.122 216.426C258.145 216.272 261.323 213.946 261.219 211.231C261.115 208.516 257.769 206.439 253.746 206.593C249.723 206.747 246.546 209.073 246.649 211.788C246.753 214.504 250.099 216.58 254.122 216.426Z" fill="#7A2106"/>
<path d="M275.737 247.76C260.987 247.76 254.697 233.79 254.427 233.18C253.647 231.41 254.457 229.35 256.227 228.57C257.997 227.8 260.057 228.6 260.837 230.36C261.047 230.83 265.777 241.02 276.187 240.75C285.667 240.5 286.747 232.7 286.837 231.81C287.037 229.9 288.737 228.5 290.647 228.67C292.557 228.85 293.967 230.53 293.807 232.44C293.367 237.58 289.147 247.4 276.377 247.75C276.167 247.75 275.957 247.75 275.747 247.75L275.737 247.76Z" fill="#511500"/>
<path d="M238.968 249.159C227.088 249.159 222.428 240.13 221.618 235.2C221.308 233.29 222.598 231.49 224.508 231.18C226.418 230.87 228.198 232.15 228.528 234.04C228.688 234.94 230.358 242.62 239.828 242.14C249.008 241.69 253.138 233.46 254.118 231.18L253.868 224.65C253.798 222.72 255.298 221.09 257.228 221.02C259.188 220.95 260.788 222.45 260.858 224.38L261.138 231.65C261.158 232.09 261.088 232.53 260.948 232.94C260.728 233.57 255.368 248.39 240.178 249.139C239.768 249.159 239.368 249.169 238.978 249.169L238.968 249.159Z" fill="#511500"/>
<path d="M259.088 273.409C257.218 273.409 255.668 271.929 255.588 270.039C255.518 268.109 257.018 266.479 258.948 266.409C264.638 266.189 268.848 264.419 271.478 261.129C276.478 254.879 274.698 244.92 274.678 244.83C274.328 242.93 275.578 241.1 277.468 240.75C279.368 240.4 281.188 241.63 281.548 243.53C281.648 244.06 283.958 256.679 276.968 265.469C273.008 270.439 267.038 273.109 259.208 273.409C259.158 273.409 259.118 273.409 259.068 273.409H259.088Z" fill="#511500"/>
<path d="M257.837 273.439C250.657 273.439 244.967 271.229 240.907 266.849C233.267 258.619 234.607 245.86 234.667 245.32C234.887 243.4 236.597 242.01 238.537 242.24C240.457 242.46 241.837 244.18 241.627 246.1C241.607 246.29 240.627 256.289 246.067 262.109C248.937 265.189 253.287 266.629 258.967 266.419C260.937 266.329 262.527 267.849 262.597 269.779C262.667 271.709 261.167 273.339 259.237 273.409C258.767 273.429 258.307 273.439 257.857 273.439H257.837Z" fill="#511500"/>
<path d="M255.527 316.399C227.237 316.399 200.827 308.009 180.657 292.509C158.567 275.539 145.837 251.329 144.807 224.36C144.427 214.33 145.647 204.2 148.437 194.26C148.957 192.4 150.897 191.31 152.757 191.84C154.617 192.36 155.707 194.3 155.177 196.16C152.577 205.39 151.447 214.79 151.797 224.09C152.747 248.949 164.507 271.269 184.917 286.959C205.097 302.469 232.047 310.389 260.757 309.309C262.717 309.219 264.317 310.739 264.387 312.669C264.457 314.599 262.957 316.229 261.027 316.299C259.187 316.369 257.357 316.409 255.527 316.409V316.399Z" fill="#511500"/>
<path d="M287.887 199.17C286.247 199.17 284.707 198.27 283.917 196.79C283.027 195.12 283.277 193.06 284.557 191.65L306.877 167C308.547 165.16 311.397 165.02 313.237 166.68C315.077 168.35 315.217 171.19 313.557 173.04L299.627 188.42L316.057 186.04C318.517 185.68 320.797 187.39 321.157 189.85C321.517 192.31 319.807 194.59 317.347 194.95L288.537 199.12C288.317 199.15 288.107 199.17 287.887 199.17Z" fill="#511500"/>
<path d="M226.337 202.57C226.287 202.57 226.237 202.57 226.187 202.57L197.097 201.59C194.617 201.51 192.667 199.43 192.747 196.94C192.827 194.46 194.937 192.48 197.397 192.59L213.987 193.15L198.447 179.4C196.587 177.75 196.417 174.91 198.057 173.05C199.707 171.19 202.547 171.01 204.407 172.66L229.307 194.7C230.727 195.96 231.207 197.97 230.507 199.73C229.827 201.45 228.167 202.56 226.327 202.56L226.337 202.57Z" fill="#511500"/>
<path d="M257.658 448.789C170.248 448.789 151.528 409.609 150.778 407.949C150.448 407.229 150.378 406.409 150.578 405.649L156.978 380.469C151.868 378.299 140.527 373.539 130.497 369.569C128.697 368.859 127.818 366.829 128.528 365.029C129.238 363.229 131.267 362.349 133.067 363.059C146.547 368.379 162.327 375.129 162.487 375.199C164.067 375.879 164.927 377.609 164.497 379.279L157.698 406.039C159.238 408.639 164.338 416.009 175.958 423.309C200.278 438.579 233.808 441.789 257.658 441.789C259.588 441.789 261.158 443.359 261.158 445.289C261.158 447.219 259.588 448.789 257.658 448.789Z" fill="#511500"/>
<path d="M257.658 448.789C255.728 448.789 254.158 447.219 254.158 445.289C254.158 443.359 255.728 441.789 257.658 441.789C332.839 441.789 354.169 411.909 357.629 406.049L350.819 379.279C350.409 377.659 351.199 375.969 352.719 375.249C352.889 375.169 370.059 367.079 383.589 361.729C385.389 361.019 387.419 361.899 388.129 363.699C388.839 365.499 387.959 367.529 386.159 368.239C375.949 372.269 363.609 377.909 358.309 380.359L364.739 405.639C364.939 406.409 364.859 407.219 364.539 407.939C363.789 409.609 345.069 448.779 257.658 448.779V448.789Z" fill="#511500"/>
<path d="M359.579 546.579C358.239 546.579 356.919 546.489 355.629 546.289C328.659 542.189 297.357 507.999 290.187 499.799C285.377 501.009 273.317 503.639 259.307 503.639C257.377 503.639 255.807 502.069 255.807 500.139C255.807 498.209 257.377 496.639 259.307 496.639C276.127 496.639 290.277 492.529 290.417 492.489C291.747 492.099 293.197 492.529 294.087 493.599C294.437 494.019 329.279 535.199 356.679 539.369C372.339 541.749 396.359 523.769 406.119 502.359C409.909 494.049 414.329 478.469 401.369 467.439C394.739 461.799 387.449 459.399 379.699 460.319C359.259 462.739 341.519 486.799 341.349 487.039C340.209 488.599 338.029 488.949 336.459 487.809C334.899 486.669 334.549 484.489 335.689 482.919C336.479 481.829 355.369 456.169 378.859 453.369C388.629 452.199 397.739 455.139 405.919 462.109C417.949 472.339 420.349 488.069 412.499 505.259C403.129 525.799 379.339 546.579 359.589 546.579H359.579Z" fill="#511500"/>
<path d="M370.969 460.129C369.959 460.129 368.959 459.699 368.269 458.859L360.989 450.069C360.919 449.989 360.859 449.899 360.799 449.809C355.809 442.519 352.149 434.489 349.909 425.949L348.179 419.359C347.689 417.489 348.809 415.579 350.679 415.089C352.549 414.599 354.459 415.719 354.949 417.589L356.679 424.179C358.699 431.889 361.999 439.139 366.479 445.729L373.649 454.399C374.879 455.889 374.669 458.099 373.189 459.329C372.539 459.869 371.749 460.129 370.959 460.129H370.969Z" fill="#511500"/>
<path d="M300.107 509.829C299.747 509.829 299.387 509.779 299.027 509.659C297.187 509.069 296.177 507.089 296.777 505.249C312.857 455.509 358.349 441.579 360.279 441.019C362.129 440.479 364.079 441.529 364.629 443.389C365.179 445.239 364.119 447.189 362.269 447.739C361.829 447.869 318.357 461.279 303.447 507.409C302.967 508.889 301.597 509.829 300.117 509.829H300.107Z" fill="#511500"/>
<path d="M159.038 546.579C139.288 546.579 115.498 525.799 106.128 505.259C98.2878 488.069 100.688 472.339 112.708 462.109C120.888 455.149 129.998 452.209 139.768 453.369C163.248 456.169 182.138 481.829 182.938 482.919C184.078 484.479 183.728 486.669 182.168 487.809C180.598 488.949 178.418 488.599 177.278 487.039C177.098 486.799 159.358 462.739 138.928 460.319C131.168 459.399 123.888 461.789 117.258 467.439C111.698 472.179 103.678 483.009 112.508 502.359C122.278 523.769 146.288 541.749 161.948 539.369C189.348 535.199 224.188 494.019 224.538 493.599C225.428 492.539 226.868 492.099 228.208 492.489C228.348 492.529 242.558 496.639 259.328 496.639C261.258 496.639 262.828 498.209 262.828 500.139C262.828 502.069 261.258 503.639 259.328 503.639C245.308 503.639 233.258 501.009 228.448 499.799C221.288 507.989 189.978 542.179 163.008 546.289C161.718 546.489 160.398 546.579 159.058 546.579H159.038Z" fill="#511500"/>
<path d="M147.637 460.129C146.957 460.129 146.267 459.929 145.667 459.519C144.077 458.429 143.667 456.249 144.757 454.649L148.037 449.859C155.637 438.749 160.437 429.869 161.927 424.179L163.047 419.909C163.537 418.039 165.447 416.919 167.317 417.409C169.187 417.899 170.307 419.809 169.817 421.679L168.697 425.949C166.977 432.499 161.967 441.879 153.807 453.809L150.527 458.599C149.847 459.589 148.747 460.119 147.637 460.119V460.129Z" fill="#511500"/>
<path d="M218.497 508.829C217.017 508.829 215.647 507.889 215.167 506.409C200.217 460.149 156.787 446.869 156.347 446.739C154.497 446.189 153.437 444.249 153.977 442.389C154.527 440.539 156.477 439.479 158.327 440.019C160.257 440.589 205.747 454.509 221.827 504.249C222.417 506.089 221.417 508.059 219.577 508.659C219.217 508.779 218.857 508.829 218.497 508.829Z" fill="#511500"/>
<path d="M138.397 370.889C135.857 370.889 133.287 370.469 130.697 369.639C112.117 363.639 110.777 343.939 112.667 334.369C113.037 332.469 114.887 331.229 116.777 331.609C118.677 331.979 119.907 333.819 119.537 335.719C119.367 336.599 115.577 357.399 132.857 362.979C137.897 364.609 142.667 364.059 147.427 361.299C156.667 355.939 165.607 342.229 173.277 321.669C179.217 305.759 182.267 291.319 182.297 291.179C182.697 289.289 184.547 288.069 186.437 288.469C188.327 288.869 189.537 290.719 189.147 292.609C188.637 295.049 176.357 352.589 150.937 367.349C146.867 369.709 142.677 370.889 138.397 370.889Z" fill="#511500"/>
<path d="M159.668 358.369C159.308 358.369 158.948 358.319 158.588 358.199C156.978 357.679 118.658 345.059 79.508 313.109C69.348 304.819 63.128 293.029 62.008 279.919C60.878 266.759 65.008 254.029 73.648 244.08C73.928 243.75 74.218 243.42 74.508 243.09C84.398 231.92 98.6379 226.03 113.588 226.94C128.558 227.85 142.008 235.44 150.488 247.76C162.518 265.219 175.088 279.139 187.868 289.129C189.388 290.319 189.658 292.519 188.468 294.039C187.278 295.559 185.078 295.829 183.558 294.639C170.218 284.209 157.148 269.769 144.718 251.719C137.468 241.19 125.958 234.7 113.158 233.92C100.388 233.14 88.1979 238.17 79.7479 247.73C79.4679 248.04 79.1979 248.35 78.9279 248.66C71.5379 257.169 68.0079 268.059 68.9779 279.309C69.9379 290.519 75.2479 300.599 83.9279 307.679C122.008 338.759 160.358 351.409 160.738 351.529C162.578 352.129 163.588 354.099 162.988 355.939C162.508 357.419 161.138 358.359 159.658 358.359L159.668 358.369Z" fill="#511500"/>
<path d="M107.727 332.629C106.067 332.629 104.587 331.439 104.287 329.749C103.947 327.849 105.207 326.029 107.107 325.689C146.497 318.589 157.877 267.729 157.987 267.219C158.397 265.329 160.257 264.129 162.147 264.529C164.037 264.939 165.237 266.799 164.837 268.689C164.717 269.259 161.747 282.779 153.427 297.429C142.237 317.129 126.647 329.289 108.357 332.579C108.147 332.619 107.937 332.639 107.737 332.639L107.727 332.629Z" fill="#511500"/>
<path d="M123.706 292.039C129.713 287.649 131.283 279.579 127.212 273.999C123.14 268.429 114.969 267.459 108.962 271.849C102.954 276.239 101.384 284.319 105.455 289.889C109.527 295.469 117.698 296.429 123.706 292.039Z" fill="#FFA2BE"/>
<path d="M129.695 260.419C133.334 257.069 133.566 251.399 130.212 247.763C126.859 244.124 121.19 243.892 117.551 247.246C113.912 250.599 113.681 256.269 117.034 259.909C120.387 263.549 126.056 263.779 129.695 260.419Z" fill="#FFA2BE"/>
<path d="M374.939 370.889C370.659 370.889 366.469 369.709 362.399 367.349C336.979 352.589 324.699 295.049 324.189 292.609C323.789 290.719 325.009 288.859 326.899 288.469C328.799 288.069 330.649 289.289 331.039 291.179C331.159 291.749 343.179 348.109 365.909 361.299C370.669 364.059 375.429 364.609 380.479 362.979C397.759 357.399 393.969 336.599 393.799 335.719C393.439 333.819 394.669 331.989 396.569 331.619C398.469 331.249 400.299 332.479 400.669 334.379C402.559 343.949 401.209 363.649 382.639 369.649C380.049 370.489 377.479 370.899 374.939 370.899V370.889Z" fill="#511500"/>
<path d="M353.669 358.369C352.189 358.369 350.819 357.429 350.339 355.949C349.739 354.109 350.749 352.139 352.589 351.539C352.969 351.419 391.319 338.759 429.399 307.689C438.079 300.609 443.389 290.529 444.349 279.319C445.319 268.069 441.779 257.179 434.399 248.67C434.129 248.36 433.859 248.05 433.579 247.73C425.129 238.18 412.949 233.14 400.169 233.93C387.369 234.71 375.859 241.2 368.609 251.729C356.179 269.779 343.109 284.219 329.769 294.649C328.249 295.839 326.049 295.569 324.859 294.049C323.667 292.529 323.939 290.329 325.459 289.139C338.239 279.149 350.819 265.229 362.839 247.77C371.319 235.45 384.769 227.86 399.739 226.95C414.689 226.05 428.929 231.93 438.819 243.1C439.109 243.43 439.399 243.76 439.689 244.09C448.319 254.039 452.459 266.769 451.329 279.919C450.199 293.029 443.989 304.819 433.829 313.109C394.679 345.059 356.359 357.679 354.749 358.199C354.389 358.319 354.029 358.369 353.669 358.369Z" fill="#511500"/>
<path d="M405.619 332.629C405.409 332.629 405.199 332.609 404.999 332.569C386.709 329.279 371.119 317.119 359.929 297.419C351.609 282.769 348.639 269.249 348.519 268.679C348.109 266.789 349.319 264.929 351.209 264.519C353.099 264.119 354.959 265.309 355.369 267.199C355.479 267.709 366.939 318.589 406.249 325.679C408.149 326.019 409.419 327.839 409.069 329.739C408.769 331.429 407.289 332.619 405.629 332.619L405.619 332.629Z" fill="#511500"/>
</svg>
